PathFileType	4	(X/Y/Z)	./resultDataOpenSim/trcMotMarkerGrf/sub06/qtm-13-07.trc
DataRate	CameraRate	NumFrames	NumMarkers	Units	OrigDataRate	OrigDataStartFrame	OrigNumFrames
250.000000	250.000000	14	24	m	250.000000	325	519
Frame#	Time	L.Toe.Tip			R.Toe.Tip			L.Ankle.Lat			R.Ankle.Lat			L.Ankle.Med			R.Ankle.Med			L.Heel			R.Heel			L.Knee.Lat			R.Knee.Lat			L.Knee.Med			R.Knee.Med			L.Thigh.Upper			R.Thigh.Upper			L.ASIS			R.ASIS			V.Sacral			L.Acromium			R.Acromium			C7			L.Elbow			R.Elbow			L.Wrist.Lat			R.Wrist.Lat
		X1	Y1	Z1	X2	Y2	Z2	X3	Y3	Z3	X4	Y4	Z4	X5	Y5	Z5	X6	Y6	Z6	X7	Y7	Z7	X8	Y8	Z8	X9	Y9	Z9	X10	Y10	Z10	X11	Y11	Z11	X12	Y12	Z12	X13	Y13	Z13	X14	Y14	Z14	X15	Y15	Z15	X16	Y16	Z16	X17	Y17	Z17	X18	Y18	Z18	X19	Y19	Z19	X20	Y20	Z20	X21	Y21	Z21	X22	Y22	Z22	X23	Y23	Z23	X24	Y24	Z24

325	1.296	0.44973882	0.10964519	-0.1206626	0.92269016	0.035586356	0.017735899	0.46206142	0.2423113	-0.15144208	0.78718318	0.058868797	0.049083131	0.4874432	0.24384575	-0.070405695	0.80227885	0.083405164	-0.037567445	0.42119969	0.30007581	-0.097637969	0.72926113	0.03970384	-0.0071192339	0.79850574	0.39607169	-0.19811303	0.86618265	0.43819226	0.093981259	0.81133494	0.37981593	-0.074773899	0.82705916	0.43403207	-0.027788204	0.69207668	0.77414257	-0.164628	0.74191467	0.79214726	0.17322117	0.77359373	0.82602931	-0.1375351	0.81878892	0.84600151	0.10719263	0.61367511	0.91254232	0.017566036	0.73995341	1.3185977	-0.18906186	0.75338966	1.3006633	0.1736953	0.66890922	1.3503124	-0.005229243	0.75377982	0.99286882	-0.25030343	0.65826285	0.998547	0.24031455	0.96923598	0.86909165	-0.24133222	0.80138378	0.80658264	0.30152962
326	1.3	0.46509556	0.11058687	-0.1219258	0.92262936	0.035596536	0.017745328	0.47558727	0.24344511	-0.15224389	0.78697183	0.058968101	0.04926167	0.50098573	0.24501727	-0.071217126	0.80218242	0.083608948	-0.037416477	0.43391605	0.30050623	-0.098314771	0.72916571	0.039838027	-0.0069425764	0.81072417	0.40011666	-0.19822995	0.86695649	0.43838637	0.094172841	0.82336773	0.38377286	-0.074669166	0.82827508	0.43439144	-0.027735464	0.69881611	0.77656008	-0.16467985	0.7472365	0.7940068	0.17381164	0.77993994	0.82839871	-0.13691934	0.82381681	0.84797999	0.10808292	0.61915271	0.91452172	0.017363519	0.74539872	1.3208151	-0.18894599	0.75904015	1.3030279	0.173693	0.67453004	1.3523773	-0.0051811783	0.75714983	0.99528003	-0.2500746	0.66590694	1.0000191	0.24096937	0.97054827	0.86808657	-0.24270113	0.81405084	0.81075922	0.29977575
327	1.304	0.48063242	0.1113336	-0.12327029	0.92257021	0.035606417	0.017746776	0.48912722	0.24436069	-0.15305609	0.78682037	0.059064204	0.049420788	0.5146614	0.24590075	-0.072017337	0.80207687	0.083802827	-0.037279001	0.44660329	0.30066043	-0.098965101	0.72905437	0.039979271	-0.006742301	0.82281096	0.40424642	-0.19827576	0.86768249	0.43858625	0.094284761	0.83513326	0.38784973	-0.074459935	0.82915834	0.43470888	-0.027669442	0.70564122	0.77905256	-0.16480869	0.75307026	0.79606988	0.17455265	0.78638567	0.83085313	-0.13610638	0.8288666	0.84996959	0.10890729	0.62457845	0.91647817	0.017098199	0.75088499	1.3229854	-0.18882668	0.76468657	1.3053706	0.17370478	0.68016289	1.3544016	-0.0051295047	0.7604292	0.99764497	-0.24998484	0.67350942	1.0014979	0.24164869	0.97177505	0.86712914	-0.24407141	0.8266215	0.81510233	0.29799144
328	1.308	0.49635275	0.11189293	-0.12466906	0.92251045	0.035618972	0.017743823	0.50268125	0.24505684	-0.15385958	0.78674762	0.059144879	0.049549579	0.52843284	0.24653248	-0.072820344	0.80196578	0.083983598	-0.037160493	0.45925309	0.30053193	-0.09953714	0.72894068	0.040120994	-0.0065556058	0.83482594	0.40841444	-0.1982121	0.86837201	0.43878464	0.094338362	0.84663171	0.39201571	-0.074144256	0.82961217	0.43501523	-0.027529102	0.71254063	0.78157764	-0.16500692	0.75865186	0.79798067	0.17509519	0.79271631	0.83330761	-0.135224	0.8339552	0.85196134	0.1096699	0.6299828	0.91840266	0.016757264	0.75641609	1.3250962	-0.18870004	0.7703299	1.30769	0.17373129	0.68578555	1.356397	-0.0050557864	0.76363089	0.99996625	-0.25003377	0.68109017	1.0029813	0.24234685	0.97292029	0.86622579	-0.24544287	0.83909173	0.81961338	0.29616891
329	1.312	0.51225251	0.11227547	-0.12609783	0.92244832	0.035635244	0.017735483	0.51625671	0.24551943	-0.15463479	0.78671649	0.0592109	0.049656007	0.5421761	0.24698037	-0.073617921	0.8018509	0.084153943	-0.037061797	0.47187105	0.30012832	-0.1000438	0.72883442	0.040255918	-0.0064020808	0.84678007	0.4125677	-0.19802362	0.86903056	0.43897598	0.094347382	0.85800502	0.39621466	-0.073776748	0.82973301	0.43530477	-0.027331321	0.71951504	0.78411347	-0.16527787	0.76335213	0.79946602	0.17520771	0.79887407	0.83570513	-0.13442591	0.83908881	0.85394083	0.11037199	0.63539474	0.92028321	0.01633616	0.7619967	1.3271426	-0.18856415	0.77596631	1.3099835	0.17376625	0.69138758	1.3583688	-0.0049620427	0.76677301	1.0022476	-0.25018253	0.68868462	1.0044698	0.24307085	0.97399835	0.8653829	-0.24681344	0.85146031	0.82427592	0.29430789
330	1.316	0.5283396	0.11248995	-0.12754945	0.92238658	0.035652577	0.017719107	0.52987676	0.2457268	-0.15538253	0.78669244	0.059266723	0.049745066	0.55580725	0.24728401	-0.074374458	0.80173148	0.08432151	-0.036969201	0.48447215	0.29945671	-0.10054171	0.72874263	0.040382083	-0.0062821679	0.85861639	0.41669017	-0.19777515	0.86967016	0.43915758	0.094320635	0.86937307	0.40041085	-0.073411108	0.82949377	0.43559017	-0.027162603	0.72656894	0.78665374	-0.16565187	0.76746753	0.80066159	0.17506868	0.80503087	0.83804962	-0.13377989	0.84425773	0.85589	0.11100861	0.64082493	0.92211718	0.015837754	0.76762456	1.3291306	-0.18842057	0.78159541	1.312246	0.17380344	0.69697162	1.3603121	-0.0048530325	0.76987543	1.0044886	-0.25037263	0.69634926	1.0059635	0.24384094	0.9750295	0.86458803	-0.2481683	0.86372264	0.82904961	0.2924182
331	1.32	0.54461087	0.11253631	-0.12901753	0.92233137	0.035668165	0.017696117	0.54356889	0.24566244	-0.15611931	0.78666314	0.059319486	0.049817396	0.56933578	0.24743895	-0.075052613	0.80161037	0.084493717	-0.036865351	0.49707516	0.298514	-0.10109071	0.72867304	0.040505265	-0.0061946855	0.87028553	0.42080599	-0.19752721	0.87032282	0.43932618	0.094273908	0.88073795	0.40461474	-0.073057395	0.82881026	0.4358961	-0.027089937	0.73368563	0.78919255	-0.16613421	0.77176046	0.80187643	0.17494783	0.81145069	0.84038776	-0.13319531	0.84944802	0.85779173	0.11157331	0.64627315	0.92390876	0.015281682	0.77328788	1.3310713	-0.18827307	0.78722038	1.3144706	0.17383908	0.70255026	1.3622166	-0.0047356395	0.77296758	1.0066879	-0.25055123	0.70412059	1.0074566	0.24467183	0.97602241	0.86381789	-0.24948769	0.87586568	0.83389407	0.29050618
332	1.324	0.56103458	0.11240679	-0.13048102	0.9222872	0.035681165	0.017672282	0.55732843	0.24534499	-0.15685639	0.78662942	0.059378389	0.049875623	0.58281034	0.2474241	-0.07565331	0.80149868	0.084672453	-0.03675185	0.50968822	0.29729288	-0.1017148	0.72863492	0.040634302	-0.0061436165	0.88178591	0.42494176	-0.19726228	0.87103793	0.4394759	0.094235309	0.89205093	0.40885879	-0.072681984	0.82790986	0.43618853	-0.027105579	0.74082925	0.79172335	-0.16666365	0.77656064	0.80321066	0.17481644	0.8183302	0.84277705	-0.13249852	0.85465655	0.85963085	0.11206602	0.65174876	0.92566115	0.014720257	0.77897133	1.3329665	-0.18812496	0.79284503	1.3166502	0.17387367	0.70813794	1.3640718	-0.0046205306	0.77608933	1.0088528	-0.2506783	0.71193555	1.0089321	0.24554393	0.97697178	0.86305788	-0.25076658	0.88787811	0.83879819	0.2885696
333	1.328	0.57760531	0.11210071	-0.13193632	0.92225424	0.035691924	0.017652477	0.57112516	0.24483399	-0.15759896	0.7865958	0.059449858	0.049923838	0.59628137	0.24721931	-0.076220301	0.80141135	0.084853484	-0.036650194	0.52230606	0.29578982	-0.10239312	0.72863508	0.040773625	-0.0061358876	0.89312332	0.42909582	-0.1969346	0.87183854	0.43960345	0.094226428	0.90329287	0.41316	-0.072231148	0.8272473	0.43639313	-0.027153984	0.7479764	0.79424492	-0.16717012	0.78157947	0.80449497	0.17433414	0.82558658	0.84523511	-0.13164442	0.85988657	0.86139516	0.11249347	0.65728893	0.92737247	0.014249848	0.78466622	1.334807	-0.18797571	0.79847229	1.3187797	0.17391212	0.71373747	1.3658705	-0.00451473	0.77927312	1.0109972	-0.25074172	0.71965088	1.0103693	0.24640747	0.97787059	0.86231044	-0.252017	0.89975859	0.84377105	0.28660731
334	1.332	0.59440693	0.11164593	-0.13343762	0.92222961	0.035701501	0.017637487	0.58495667	0.24418429	-0.15836418	0.78656392	0.059535259	0.049965327	0.60980876	0.24681089	-0.076806616	0.80135828	0.085030575	-0.036578576	0.53492752	0.29400681	-0.10309052	0.72866233	0.040919311	-0.0061662853	0.90431229	0.43324072	-0.19651641	0.87265002	0.43971441	0.094228251	0.91446213	0.41749735	-0.071676706	0.827068	0.43648577	-0.027187184	0.7551311	0.79676412	-0.1676383	0.78618251	0.8054174	0.17310332	0.83284951	0.84772318	-0.13076653	0.86513506	0.86307404	0.11286226	0.66295966	0.92903663	0.014002435	0.79037321	1.3365825	-0.18782357	0.80410107	1.3208553	0.17395721	0.71933545	1.3676087	-0.0044133094	0.78252372	1.0131263	-0.25076327	0.72718679	1.0117619	0.24722917	0.97871826	0.8615851	-0.25324913	0.91151223	0.84881943	0.28462475
335	1.336	0.61154601	0.11109072	-0.13504895	0.92221028	0.035710768	0.017625306	0.59885485	0.2433983	-0.1591729	0.78653273	0.05963197	0.050001525	0.62345909	0.24619594	-0.077445312	0.80134071	0.085199766	-0.036534917	0.54756554	0.29194745	-0.1037926	0.72868385	0.041064595	-0.006206581	0.91540053	0.43734522	-0.19599388	0.87334068	0.43981702	0.094191204	0.92552836	0.42182227	-0.071044024	0.82720453	0.43652372	-0.027194876	0.76230755	0.79928827	-0.16809436	0.79000429	0.80582754	0.17125668	0.83981824	0.85018949	-0.12999424	0.87039201	0.86465445	0.11317619	0.66881221	0.93064775	0.014072352	0.79609276	1.3382901	-0.18766919	0.8097281	1.3228733	0.17400742	0.72491402	1.3692833	-0.0042948429	0.78580487	1.0152278	-0.25075733	0.73459183	1.0131204	0.24801849	0.97952002	0.86088442	-0.25446038	0.92314055	0.85394832	0.28262641
336	1.34	0.62901318	0.11046382	-0.13675619	0.92219555	0.035719671	0.017613711	0.61284218	0.24242726	-0.16001945	0.78650381	0.05973587	0.050031902	0.63726421	0.24537981	-0.078135328	0.80135492	0.085361076	-0.036502722	0.56023507	0.2896134	-0.10450368	0.72868032	0.041208163	-0.0062312866	0.92642846	0.44138833	-0.19536927	0.87390401	0.4399084	0.094105935	0.93648275	0.42609919	-0.070380931	0.82734576	0.43658256	-0.027196111	0.76950178	0.80180851	-0.1685704	0.793711	0.80610193	0.16983954	0.84643635	0.85260748	-0.12934798	0.87564646	0.86612172	0.11344039	0.6747964	0.93220148	0.014381704	0.80181698	1.3399314	-0.18751392	0.81535299	1.3248305	0.17406053	0.73046818	1.3708901	-0.0041341903	0.78905178	1.0172825	-0.25070441	0.74195671	1.0144545	0.24880466	0.98028266	0.86020099	-0.25564303	0.93463652	0.859158	0.28060815
337	1.344	0.64668324	0.10975981	-0.13848395	0.92218654	0.035728355	0.017601581	0.62690777	0.24122521	-0.16086589	0.7864826	0.059844868	0.05005513	0.65121956	0.2443651	-0.078856196	0.80139747	0.085517171	-0.036469183	0.57294491	0.28700576	-0.10522562	0.72867716	0.0413549	-0.0062497509	0.93739967	0.44536032	-0.19465961	0.87448848	0.43997902	0.094025624	0.94740084	0.43032811	-0.069696419	0.82738637	0.43669758	-0.027220375	0.77667118	0.80429366	-0.16909361	0.79844446	0.80683966	0.16982698	0.85273165	0.85497451	-0.12880712	0.88088938	0.86746379	0.11366112	0.68075649	0.93369207	0.014678338	0.80753521	1.3415056	-0.18735662	0.82097645	1.326724	0.17411388	0.73601166	1.3724233	-0.0039361669	0.7922235	1.0192799	-0.25058922	0.74933345	1.0157629	0.24960881	0.98101418	0.85952353	-0.25679221	0.94599532	0.86442607	0.27855768
338	1.348	0.66441663	0.1089583	-0.14016305	0.92218441	0.035737632	0.017588715	0.64101308	0.23979514	-0.1616645	0.78647352	0.059961034	0.050070535	0.66534331	0.24314658	-0.079602675	0.80146701	0.08566969	-0.036434317	0.58570911	0.28412766	-0.10595761	0.72871074	0.041512397	-0.0062853785	0.94831836	0.44925814	-0.19387498	0.87515751	0.44003337	0.093982129	0.95833035	0.43451748	-0.068942115	0.82739477	0.43688699	-0.027306657	0.78375043	0.80671404	-0.16967737	0.80427875	0.80808443	0.17083914	0.85880506	0.85729077	-0.12835288	0.8861234	0.86867594	0.11383933	0.6865706	0.93511288	0.014754884	0.81324329	1.3430064	-0.18719561	0.82659589	1.3285517	0.17416539	0.74156294	1.3738804	-0.0037423502	0.7953316	1.0212208	-0.250434	0.75674614	1.0170412	0.25044127	0.98172576	0.85884174	-0.25790499	0.95722649	0.86971008	0.27646057
